<?xml version="1.0" standalone="yes"?>
<svg xmlns="http://www.w3.org/2000/svg" width="159" height="173">
<path style="fill:#010101; stroke:none;" d="M0 0L0 99C5.94314 96.9402 18.0555 93.8119 22.4506 89.5046C38.3571 73.9161 24.1191 44.9504 35.483 26.0039C44.7288 10.5889 71.2242 5.49939 87 1L60 0L0 0z"/>
<path style="fill:#4f4f4f; stroke:none;" d="M83 7L77 7L77 8L85 9L84 3L90 4L93 7L91 9L90 9L90 12L89 12L89 9L88 9L86 16L89 15L93 17L94 22L82 25L83 20C77.5639 23.683 78.7983 33.9329 78 40L83.1111 27.1111L96 22L99 23L100 16L101 16L101 22L102 22L102 13L111 22L108 25L107 25L104 20L99 25L99 26L105 27L108 31L110 28L110 33L111 33C111.875 21.9082 110.777 5.81123 96 5L97 2C94.3511 2.52979 93.3931 2.42778 94 0C88.4638 1.12984 83.548 0.110138 83 7z"/>
<path style="fill:#858585; stroke:none;" d="M88 0L88 1L93 1L88 0z"/>
<path style="fill:#010101; stroke:none;" d="M94 0L94 1C100.636 5.63464 109.666 11.4792 111.606 20.0008C112.59 24.3253 110.43 28.8197 111.603 33C113.115 38.3851 118.303 42.8815 120.737 48C122.791 52.3208 122.175 56.6812 123.728 60.9992C125.641 66.3203 131.561 69.2626 132.562 75.0008C134.11 83.8695 128.439 92.4672 132.046 101.999C135.511 111.155 142.175 106.939 148.697 111.924C153.018 115.227 155.867 124.998 158 130L159 130L159 0L94 0z"/>
<path style="fill:#303030; stroke:none;" d="M84 1L85 2L84 1z"/>
<path style="fill:#858585; stroke:none;" d="M93.6667 1.33333L94.3333 1.66667L93.6667 1.33333z"/>
<path style="fill:#303030; stroke:none;" d="M82 2L83 3L82 2z"/>
<path style="fill:#858585; stroke:none;" d="M95 2L96 3L95 2z"/>
<path style="fill:#303030; stroke:none;" d="M80 3L81 4L80 3z"/>
<path style="fill:#4f4f4f; stroke:none;" d="M81 3L82 4L81 3z"/>
<path style="fill:#858585; stroke:none;" d="M82 3L64 8L64 9L83 7L82 3z"/>
<path style="fill:#303030; stroke:none;" d="M84 3L85 9C79.8657 7.4433 74.8898 6.7908 71 11L83 9L81 12L85 12L85 16C75.6094 16.4758 64.5014 13.157 56 18L56 14L55 14L52 19L46 19L46 20L48 26L43 25L36 32L37 37L38 37L43 30L41 33L48 33L49 28L50 28L49 31L57 27L60 24L59 30L64 22L70 24L65 24L66 33L75 18L77 18L78 21L75 21L76 25L77 25L77 22L83 20L82 25L94 22L93 17L89 15L86 16L88 9L89 9L89 12L90 12L90 9L91 9L92 11L93 7L90 4L84 3z"/>
<path style="fill:#858585; stroke:none;" d="M96 3L99 5L96 3z"/>
<path style="fill:#303030; stroke:none;" d="M71 4L72 5L71 4z"/>
<path style="fill:#4f4f4f; stroke:none;" d="M72 4L72 5L79 5L72 4z"/>
<path style="fill:#303030; stroke:none;" d="M68.6667 5.33333L69.3333 5.66667L68.6667 5.33333z"/>
<path style="fill:#4f4f4f; stroke:none;" d="M70.6667 5.33333L71.3333 5.66667L70.6667 5.33333z"/>
<path style="fill:#303030; stroke:none;" d="M101 5L102 6L101 5M66 6L67 7L66 6z"/>
<path style="fill:#4f4f4f; stroke:none;" d="M67 6L68 7L67 6z"/>
<path style="fill:#858585; stroke:none;" d="M90 13L91 16L95 15L96 20L99 19L102 8C94.8463 5.14421 95.3218 10.0956 90 13z"/>
<path style="fill:#303030; stroke:none;" d="M64 7L65 8L64 7z"/>
<path style="fill:#4f4f4f; stroke:none;" d="M44 20L40 20L40 21L42 20L42 21L35 25L35 26L42 25L33 30L33 40L42 37L37 46L41 43L40 48L45 46L45 47L43 50L51 49L49 53L58 52L58 53L54 56L57 55L54 60L53 60L52 57L51 62L51 63C54.1216 61.3637 56.5453 58.0973 60.0039 57.1474C66.3068 55.4163 70.9319 60.493 75 53L78 53L72 49L72 47L77 46L78 46C78 40.9764 74.0184 35.9081 73 41L70 40L71 37L75 34L73 36L72 36L70 35L74 30L77 32L78 28L75 21L78 21L78 20L78 19L75 18L72 25L74 23L75 23L74 28C69.3362 26.3311 68.9188 29.9796 66 33L65 24L70 24L64 22L59 30L60 27C54.6701 26.642 52.809 27.2949 49 31L50 28L49 28L48 33L41 33L43 30L38 37L37 37L36 32C40.0188 30.8594 41.8594 29.0188 43 25L48 26L46 20L46 19L52 19L55 14L56 14L56 18C63.9866 14.8186 72.6546 15.5239 81 17L81 16L78 15L82 13L83 9L71 11L76 8C69.2926 5.64746 45.5426 12.5764 44 20z"/>
<path style="fill:#303030; stroke:none;" d="M61 9L62 10L61 9z"/>
<path style="fill:#4f4f4f; stroke:none;" d="M75.6667 9.33333L76.3333 9.66667L75.6667 9.33333z"/>
<path style="fill:#303030; stroke:none;" d="M60 10L61 11L60 10M57.6667 11.3333L58.3333 11.6667L57.6667 11.3333z"/>
<path style="fill:#858585; stroke:none;" d="M63 11C65.3165 14.1422 68.6331 15.0552 72 13L63 11M75 14L80 12L75 14z"/>
<path style="fill:#303030; stroke:none;" d="M92 11L93 12L92 11z"/>
<path style="fill:#4f4f4f; stroke:none;" d="M96 11L95 14L96 11z"/>
<path style="fill:#303030; stroke:none;" d="M54 12L55 13L54 12z"/>
<path style="fill:#858585; stroke:none;" d="M80 12L78 15L83 13L80 12z"/>
<path style="fill:#4f4f4f; stroke:none;" d="M84 12C82.5027 14.4695 81.9665 15.3329 85 16L84 12z"/>
<path style="fill:#303030; stroke:none;" d="M51 13L52 14L51 13M61 13L62 14L61 13M102 13L102 22L101 22L101 16L100 16L99 23L96 22L97 25C100.851 24.5465 102.882 23.9569 104 20L107 25L108 25L111 22C109.128 17.4945 107.051 13.8215 102 13M108 13L110 15L108 13M49 14L50 15L49 14z"/>
<path style="fill:#b4b4b4; stroke:none;" d="M91 14L92 15L91 14z"/>
<path style="fill:#858585; stroke:none;" d="M108 14L109 15L108 14z"/>
<path style="fill:#303030; stroke:none;" d="M47 15L48 16L47 15M110 16L111 17L110 16z"/>
<path style="fill:#858585; stroke:none;" d="M44 18L45 19L44 18M42.6667 19.3333L43.3333 19.6667L42.6667 19.3333z"/>
<path style="fill:#4f4f4f; stroke:none;" d="M63.3333 19.6667L63.6667 20.3333L63.3333 19.6667z"/>
<path style="fill:#303030; stroke:none;" d="M39 20L38 22L39 20z"/>
<path style="fill:#858585; stroke:none;" d="M41 20L36 25L41 20z"/>
<path style="fill:#4f4f4f; stroke:none;" d="M66 20L69 22L69 21L66 20z"/>
<path style="fill:#858585; stroke:none;" d="M44 21L43 23L44 21z"/>
<path style="fill:#4f4f4f; stroke:none;" d="M37 22L38 23L37 22z"/>
<path style="fill:#858585; stroke:none;" d="M47 22L45 23L45 24L47 22z"/>
<path style="fill:#4f4f4f; stroke:none;" d="M51.3333 22.6667L51.6667 23.3333L51.3333 22.6667M60.3333 22.6667L60.6667 23.3333L60.3333 22.6667M77 22L77 24L79 22L77 22z"/>
<path style="fill:#858585; stroke:none;" d="M79 22L76 29L77 29L79 22M105.333 22.6667L105.667 23.3333L105.333 22.6667M74 23L73 28L74 23z"/>
<path style="fill:#303030; stroke:none;" d="M110.333 23.6667L110.667 24.3333L110.333 23.6667z"/>
<path style="fill:#4f4f4f; stroke:none;" d="M57 26L60 25L57 26z"/>
<path style="fill:#858585; stroke:none;" d="M90 24L90 25L93 25L90 24z"/>
<path style="fill:#4f4f4f; stroke:none;" d="M97 24L98 25L97 24z"/>
<path style="fill:#858585; stroke:none;" d="M35 26L34 31L35 31L42 25L35 26M57 27L60 25L57 27z"/>
<path style="fill:#303030; stroke:none;" d="M80 25L80 28L81 28L80 25z"/>
<path style="fill:#858585; stroke:none;" d="M84 25L81 36L82 36L84 25z"/>
<path style="fill:#b4b4b4; stroke:none;" d="M72 66L68 64L63 68L66 72L60 73L62 76L57 76L57 68L54 70C55.491 64.4786 57.0412 61.1782 63 60L63 59C48.5801 56.3244 52.5727 77.9777 45 85L47 87C45.8592 98.1617 61.4897 111.813 68.5756 118.985C71.3912 121.835 74.6392 125.875 78.4637 127.385C81.2999 128.505 84.282 126.812 87 126L65 102L78 107L99 108L97 94L100 94L100 93L107 77L111 76L110 84L125 79C123.958 84.0913 123.123 86.4018 126 91L127 91C129.742 83.4774 130.156 74.4487 127 67L125 68L124 65L123 65L125 75L123 78L122 78C121.122 75.2768 113.78 63.5684 113 70L112 70L111 68L103 74L99 70L100 66L94 66C95.9338 61.1002 99.0712 58.2559 104 56.3279C106.51 55.3461 110.929 55.4511 112.239 52.6968C113.48 50.0878 111.63 47.4913 111.346 44.9113C110.979 41.5898 112.325 38.3667 110.671 35.2106C107.197 28.5849 92.4819 21.4274 85.3943 26.0278C78.6074 30.433 82.5536 41.7285 81.7099 47.9853C80.6947 55.5137 75.2935 59.8792 72 66z"/>
<path style="fill:#858585; stroke:none;" d="M96 25L96 26L103 28L103 27L96 25z"/>
<path style="fill:#303030; stroke:none;" d="M106.333 26.6667L106.667 27.3333L106.333 26.6667z"/>
<path style="fill:#4f4f4f; stroke:none;" d="M34 27L35 28L34 27z"/>
<path style="fill:#303030; stroke:none;" d="M78 27L77 32L74 30L70 35L75 34L71 37L70 40L73 41L78 41C78.6393 35.9791 81.2895 31.6211 78 27z"/>
<path style="fill:#858585; stroke:none;" d="M104.333 27.6667L104.667 28.3333L104.333 27.6667M52 28L52 32L54 32L54 28L52 28z"/>
<path style="fill:#303030; stroke:none;" d="M55.3333 28.6667L55.6667 29.3333L55.3333 28.6667M64.3333 28.6667L64.6667 29.3333L64.3333 28.6667z"/>
<path style="fill:#858585; stroke:none;" d="M70 28L72 31L73 30L72 28L70 28z"/>
<path style="fill:#303030; stroke:none;" d="M108 28L108 31L110 31L110 28L108 28M111 28L112 29L111 28M33 29L34 30L33 29z"/>
<path style="fill:#4f4f4f; stroke:none;" d="M43.6667 29.3333L44.3333 29.6667L43.6667 29.3333z"/>
<path style="fill:#858585; stroke:none;" d="M105 29L106 30L105 29M56 30L57 31L56 30M106 30L107 31L106 30z"/>
<path style="fill:#303030; stroke:none;" d="M58 31L57 33L59 33L58 31z"/>
<path style="fill:#858585; stroke:none;" d="M60 31L54 38L54 39L58 39L55 42L55 43L68 37L62 31L60 31M108 31L111 34L108 31M55 32L56 33L55 32M49 33L49 35L51 35L51 33L49 33M43 35L43 36L48 34L43 35M111 34C111.262 38.0393 113.761 50.6933 111.239 53.4012C105.701 59.3493 96.5935 55.5732 94 66L100 66L99 70L103 74L111 68L112 70L113 70L114 67L120 73C112.514 61.3218 104.721 77.0133 103 63L96 66C100.007 57.4374 116.789 51.668 122 62L123 62C122.987 58.8058 123.403 56.7292 120 56L120 55C125.402 50.082 114.73 37.6579 111 34z"/>
<path style="fill:#303030; stroke:none;" d="M40 35L41 36L40 35M54.6667 35.3333L55.3333 35.6667L54.6667 35.3333z"/>
<path style="fill:#4f4f4f; stroke:none;" d="M61 35L60 37L61 35M112 35L113 36L112 35z"/>
<path style="fill:#303030; stroke:none;" d="M113 36L114 37L113 36z"/>
<path style="fill:#858585; stroke:none;" d="M40 37L33 38L32 38L33 44C28.4174 47.2383 30.0108 55.852 30 61L32 61L34 43L35 46L42 37L40 37M52 37L53 38L52 37z"/>
<path style="fill:#b4b4b4; stroke:none;" d="M62 37L63 38L62 37z"/>
<path style="fill:#303030; stroke:none;" d="M43 38L44 39L43 38z"/>
<path style="fill:#858585; stroke:none;" d="M44 41L47 38L44 41M78 46L77 46L76 44L72 47L72 49L78 53L75 53C69.5287 59.7031 65.1538 55.4547 58 57L63 59L63 60L57 61L57 62L62 61L64 64L64 65L59 64L59 67L62 66L63 73L66 72L63 68L68 64L72 66C80.0935 55.7811 79.7485 50.0417 82 38C78.5016 39.9282 78.1254 42.1224 78 46z"/>
<path style="fill:#4f4f4f; stroke:none;" d="M31 39L33 44L31 39z"/>
<path style="fill:#858585; stroke:none;" d="M52 39L52 41L54 39L52 39z"/>
<path style="fill:#4f4f4f; stroke:none;" d="M115 39L116 40L115 39z"/>
<path style="fill:#303030; stroke:none;" d="M63 40L64 41L63 40z"/>
<path style="fill:#4f4f4f; stroke:none;" d="M116 40L117 41L116 40z"/>
<path style="fill:#303030; stroke:none;" d="M74.3333 41.6667L74.6667 42.3333L74.3333 41.6667M117 41L118 42L117 41z"/>
<path style="fill:#858585; stroke:none;" d="M48 46L53 42L48 46M57 45L57 46L60 44L61 44L64 46L59 51L68 51L66 47L72 43L67 45C66.2852 40.5049 59.6742 43.5504 57 45z"/>
<path style="fill:#b4b4b4; stroke:none;" d="M34 43L34 47L35 47L34 43z"/>
<path style="fill:#303030; stroke:none;" d="M40 43C34.0122 48.828 33.0009 53.8786 33 62L38 62L39 62C39.6947 68.7456 43.1831 74.329 50 76L48 73L53 62L52 57L53 60L54 60L57 55L54 56L55 53L58 53L58 52L49 53L51 49L43 50L45 47L45 46L40 48L42 46L42 45L40 43M43 43L43 45L45 45L45 43L43 43z"/>
<path style="fill:#b4b4b4; stroke:none;" d="M68 43L67 45L69 45L68 43z"/>
<path style="fill:#303030; stroke:none;" d="M118 43L119 44L118 43M30 44L31 45L30 44M54 46L57 45L54 46z"/>
<path style="fill:#b4b4b4; stroke:none;" d="M60 44L61 45L60 44z"/>
<path style="fill:#4f4f4f; stroke:none;" d="M30 45L31 46L30 45z"/>
<path style="fill:#303030; stroke:none;" d="M119 45L120 46L119 45z"/>
<path style="fill:#4f4f4f; stroke:none;" d="M35.3333 46.6667L35.6667 47.3333L35.3333 46.6667z"/>
<path style="fill:#303030; stroke:none;" d="M50 46L51 47L50 46z"/>
<path style="fill:#b4b4b4; stroke:none;" d="M112 46L113 47L112 46z"/>
<path style="fill:#4f4f4f; stroke:none;" d="M119 46L120 47L119 46z"/>
<path style="fill:#303030; stroke:none;" d="M29 47L30 48L29 47z"/>
<path style="fill:#858585; stroke:none;" d="M55 47L56 48L55 47z"/>
<path style="fill:#303030; stroke:none;" d="M120 47L121 48L120 47z"/>
<path style="fill:#4f4f4f; stroke:none;" d="M29 48L30 70L31 70L31 63L36 68L39 66L42 71L42 75L33 73L34 79L30 78L29 78C23.5097 86.0333 22.7954 91.5392 12 93L12 94L17 94L18 102L15 98L10 102L7 99L6 99L5 111L7 114L8 114L9 112L10 116L8 119L2 116L7 122L1 122L0 127L4 125C4.22296 128.033 4.44838 131.31 8 130L8 142L10 147L19 146L20 146L24 148L24 149L17 149L21 157L18 156L14 158C17.4068 167.502 11.4407 164.081 7 169L13 169L12 173L16 173L16 168L17 168L17 173L26 173L26 172L21 171L20 165C23.8139 165.428 25.8093 165.124 26 161L30 162L29 166L33 164L30 159L33 158L31 155L29 158C24.6641 147.724 25.768 136.318 35 130L40 134C38.8739 128.074 36.6171 121.769 31 119L31 118L35 116L36 116L39 126L43 126C42.5571 130.672 44.5623 133.939 48 137L47 128L50 134L66 139L63 118L60 113L63 114L54 102L53 102L52 105L50 96L49 96L51 100L45 87L40 88L38 86L38 85L48 82L46 80L46 79L50 76C43.7647 73.5106 40.1867 68.5757 39 62L38 62L37 64L36 64L33 62L33 54L32 54L32 61L30 61L29 48z"/>
<path style="fill:#b4b4b4; stroke:none;" d="M32 48L33 49L32 48z"/>
<path style="fill:#4f4f4f; stroke:none;" d="M34 49L35 50L34 49z"/>
<path style="fill:#303030; stroke:none;" d="M55 49L56 50L55 49M121 49L122 50L121 49z"/>
<path style="fill:#4f4f4f; stroke:none;" d="M33.3333 50.6667L33.6667 51.3333L33.3333 50.6667M121 50L122 51L121 50z"/>
<path style="fill:#303030; stroke:none;" d="M122 51L122 56L123 56L122 51z"/>
<path style="fill:#010101; stroke:none;" d="M34.3333 52.6667L34.6667 53.3333L34.3333 52.6667z"/>
<path style="fill:#303030; stroke:none;" d="M65 52L65 53L69 53L65 52M70.6667 52.3333L71.3333 52.6667L70.6667 52.3333z"/>
<path style="fill:#010101; stroke:none;" d="M37 53L38 54L37 53z"/>
<path style="fill:#4f4f4f; stroke:none;" d="M38 53L39 54L38 53M120.667 55.3333L121.333 55.6667L120.667 55.3333M106 57L106 58C110.325 58 116.497 56.9836 119.308 61.1481C121.358 64.1865 120.226 67.2068 123 70L124 63C119.783 56.6631 113.298 55.7652 106 57M46 58C45.2901 61.0576 45.3308 62.2684 48 64L47 59L50 61L49 58L46 58z"/>
<path style="fill:#858585; stroke:none;" d="M56.6667 58.3333L57.3333 58.6667L56.6667 58.3333z"/>
<path style="fill:#4f4f4f; stroke:none;" d="M96 66L103 63C102.225 75.4612 107.533 68.0754 115 67L114 62L113 62C112.347 63.9601 112 64.554 112 62L111 62L111 66L104 70C105.207 65.4233 103.599 62.7858 101 59L105 59C100.196 57.498 97.1866 61.7874 96 66z"/>
<path style="fill:#303030; stroke:none;" d="M101 59L104 70L111 66L111 62L112 62C112.506 64.5286 112.494 64.5285 113 62L114 62L123 75C121.869 59.1199 115.559 57.16 101 59z"/>
<path style="fill:#858585; stroke:none;" d="M47.3333 59.6667L47.6667 60.3333L47.3333 59.6667M55 59L54 61L56 61L55 59z"/>
<path style="fill:#4f4f4f; stroke:none;" d="M57 63L62 64L62 63L60 61L57 63z"/>
<path style="fill:#303030; stroke:none;" d="M59 63L62 63L61 61L59 63z"/>
<path style="fill:#4f4f4f; stroke:none;" d="M61 61L62 62L61 61z"/>
<path style="fill:#303030; stroke:none;" d="M123 61L124 62L123 61z"/>
<path style="fill:#858585; stroke:none;" d="M53 62L51 66L52 66L53 62z"/>
<path style="fill:#303030; stroke:none;" d="M100 62L101 63L100 62z"/>
<path style="fill:#4f4f4f; stroke:none;" d="M109 62L110 63L109 62z"/>
<path style="fill:#858585; stroke:none;" d="M31 63L31 80L34 79L33 73L42 75L42 71L39 66L36 68L31 63M55 63L54 70L58 69L56 67L56 66L58 63L55 63z"/>
<path style="fill:#4f4f4f; stroke:none;" d="M116 63L117 64L116 63z"/>
<path style="fill:#858585; stroke:none;" d="M123 63L122 68L123 68L124 65L126 68L123 63z"/>
<path style="fill:#303030; stroke:none;" d="M124 63L125 64L124 63M29 64L30 65L29 64z"/>
<path style="fill:#b4b4b4; stroke:none;" d="M58 64L56 66L56 67C58.2508 66.5268 59.1178 66.1397 58 64M61 64L61 65L64 65L61 64z"/>
<path style="fill:#303030; stroke:none;" d="M125 64L126 65L125 64z"/>
<path style="fill:#4f4f4f; stroke:none;" d="M50 65L48 73L49 73L50 65z"/>
<path style="fill:#303030; stroke:none;" d="M126 65L127 66L126 65z"/>
<path style="fill:#4f4f4f; stroke:none;" d="M47 66L47 70L48 70L47 66M61 66C61 68.241 59.4604 70.4527 59 67L58 67L63 73L64 72L61 66z"/>
<path style="fill:#858585; stroke:none;" d="M50 67L50 78L51 78L50 67z"/>
<path style="fill:#303030; stroke:none;" d="M59 70L62 67L59 70z"/>
<path style="fill:#4f4f4f; stroke:none;" d="M116 67L117 68L116 67M127 67L129 69L127 67M117.333 68.6667L117.667 69.3333L117.333 68.6667z"/>
<path style="fill:#858585; stroke:none;" d="M123 68L125 75L123 68M127 68L128 69L127 68z"/>
<path style="fill:#303030; stroke:none;" d="M129 68L130 69L129 68z"/>
<path style="fill:#858585; stroke:none;" d="M128 69L129 74L130 74L128 69z"/>
<path style="fill:#4f4f4f; stroke:none;" d="M130 69L131 70L130 69z"/>
<path style="fill:#303030; stroke:none;" d="M30 70L30 75L31 75L30 70z"/>
<path style="fill:#858585; stroke:none;" d="M57 70L58 71L57 70z"/>
<path style="fill:#303030; stroke:none;" d="M61 70L61 72L63 72L63 70L61 70z"/>
<path style="fill:#4f4f4f; stroke:none;" d="M118 70L120 72L120 70L118 70z"/>
<path style="fill:#858585; stroke:none;" d="M58 71L57 76L58 76L59 74L60 74L62 76L61 72L58 71z"/>
<path style="fill:#303030; stroke:none;" d="M131 71L132 72L131 71z"/>
<path style="fill:#4f4f4f; stroke:none;" d="M131 72L130 85L131 85C131.971 80.269 133.962 76.3427 131 72M31 73L30 77L31 77L31 73M120 73L123 76L120 73z"/>
<path style="fill:#303030; stroke:none;" d="M132 73L133 74L132 73z"/>
<path style="fill:#4f4f4f; stroke:none;" d="M58 74L58 76L60 76L60 74L58 74z"/>
<path style="fill:#303030; stroke:none;" d="M131 74L132 77L131 74z"/>
<path style="fill:#858585; stroke:none;" d="M120.667 75.3333L121.333 75.6667L120.667 75.3333z"/>
<path style="fill:#303030; stroke:none;" d="M40 76L41 77L40 76z"/>
<path style="fill:#858585; stroke:none;" d="M109 78L109 79L110 87L106 85L104 89L103 89L104 85C100.996 87.6242 99.2557 89.9726 100 94L97 94L97 95L99 108L78 107L65 102C67.9916 107.763 74.6271 115.086 81 117L81 116L72 107L81 111L81 109L83 111C91.5601 109.434 103.485 117.848 110 111C104.515 105.937 100.097 104.248 100 96L101 96L107 99L103 95L106 94L106 89L109 90L109 102L118 93L113 93L110 88L113 87C110.627 82.9368 109.574 80.6026 111 76C109.194 76.1953 106.071 76.7265 109 78M122.333 76.6667L122.667 77.3333L122.333 76.6667z"/>
<path style="fill:#303030; stroke:none;" d="M29 77L30 78L29 77z"/>
<path style="fill:#858585; stroke:none;" d="M46.6667 77.3333L47.3333 77.6667L46.6667 77.3333M37.3333 78.6667L37.6667 79.3333L37.3333 78.6667M49 78L46 79L46 80L49 82L49 78z"/>
<path style="fill:#4f4f4f; stroke:none;" d="M108 78L109 79L108 78z"/>
<path style="fill:#858585; stroke:none;" d="M129 78L129 86L130 86L129 78z"/>
<path style="fill:#303030; stroke:none;" d="M27 79L28 80L27 79z"/>
<path style="fill:#858585; stroke:none;" d="M62 79L62 82L67 82L62 79M123 79C120.914 82.288 118.589 81.5431 115 81L115 82L118 83L115 86L123 86L125 79L123 79M28 80L29 81L28 80z"/>
<path style="fill:#4f4f4f; stroke:none;" d="M107 80L107 84L103 89L104 89L107 80z"/>
<path style="fill:#858585; stroke:none;" d="M106 81L105 83L106 81z"/>
<path style="fill:#303030; stroke:none;" d="M131 81L132 82L131 81z"/>
<path style="fill:#858585; stroke:none;" d="M35 82L36 83L35 82M38 82L39 83L38 82z"/>
<path style="fill:#303030; stroke:none;" d="M41 82L42 84L43 84L44 82L41 82z"/>
<path style="fill:#858585; stroke:none;" d="M38 85L38 86L40 88L48 82L38 85z"/>
<path style="fill:#303030; stroke:none;" d="M106.333 82.6667L106.667 83.3333L106.333 82.6667z"/>
<path style="fill:#858585; stroke:none;" d="M112.667 82.3333L113.333 82.6667L112.667 82.3333z"/>
<path style="fill:#4f4f4f; stroke:none;" d="M111 83L115 87L118 83L111 83z"/>
<path style="fill:#b4b4b4; stroke:none;" d="M108 84L110 87L108 84z"/>
<path style="fill:#303030; stroke:none;" d="M24.3333 85.6667L24.6667 86.3333L24.3333 85.6667z"/>
<path style="fill:#858585; stroke:none;" d="M28.6667 85.3333L29.3333 85.6667L28.6667 85.3333z"/>
<path style="fill:#303030; stroke:none;" d="M35 85L34 87L35 85z"/>
<path style="fill:#4f4f4f; stroke:none;" d="M116 86L117 90L115 88L111 87L113 93L118 93L114 99L117 99L119 93L120 93L120 96L121 96L124 94L124 93L123 86L116 86z"/>
<path style="fill:#303030; stroke:none;" d="M130 85L131 86L130 85M112 89L117 90L116 86L112 89M118 86L119 87L118 86M120 86L121 87L120 86z"/>
<path style="fill:#4f4f4f; stroke:none;" d="M129 86C128.133 91.5342 127.363 108.306 123 111L123 119L120 126L126 117L125 114C129.689 110.431 127.958 100.469 128 95L130 96L129 86z"/>
<path style="fill:#858585; stroke:none;" d="M45 87L48 93L47 87L45 87M128 87L126 93L128 87M28 88L27 91L28 88M39 88L40 89L39 88z"/>
<path style="fill:#b4b4b4; stroke:none;" d="M105 88L106 89L105 88z"/>
<path style="fill:#858585; stroke:none;" d="M118 88L120 92L121 92L118 88z"/>
<path style="fill:#303030; stroke:none;" d="M122 88L124 93L124 94L121 96L120 96L120 93L119 93L117 99L108 104C110.671 110.791 111.598 111.926 105 116L84 112L85 116L80 114C86.2397 124.406 103.195 112.331 113 118L115 117L119 135L121 134L121 135L121 145L122 145L121 137L122 137L123 151C128.311 152.104 130.162 150.211 131 145L132 145L133 148L134 145L135 145L135 148C137.266 148 145.817 150.249 140 151L140 152L144 150L145 150L149 155L147 151L147 150L149 147L145 150L144 144L153 148L148 141L148 140C153.426 140.702 157.387 137.067 159 132C154.902 130.674 155.975 128.188 157 125L154 125L155 132L151 132L151 133L153 134L148 133C143.144 136.679 135.649 134.917 130 134L130 133L133 133L133 132L128 132L120 126L123 119L123 111C129.191 109.26 126 96.3332 126 91L122 88z"/>
<path style="fill:#858585; stroke:none;" d="M123 88L126 90L123 88z"/>
<path style="fill:#303030; stroke:none;" d="M23 89L24 90L23 89z"/>
<path style="fill:#858585; stroke:none;" d="M32 89L33 90L32 89z"/>
<path style="fill:#4f4f4f; stroke:none;" d="M106 89L103 95L107 99L101 96L100 96C100.03 104.452 103.462 106.489 110 111L108 114C113.603 112.409 109.964 107.558 108 104L112 102L108 89L106 89M123 89L126 91L126 90L123 89z"/>
<path style="fill:#858585; stroke:none;" d="M42 90L43 93L42 90z"/>
<path style="fill:#303030; stroke:none;" d="M130 90L130 99L131 99L130 90M19 91L20 92L19 91M11 93L12 94L11 93M45 93L46 94L45 93z"/>
<path style="fill:#858585; stroke:none;" d="M48 93L50 96L48 93z"/>
<path style="fill:#4f4f4f; stroke:none;" d="M102 93L103 94L102 93z"/>
<path style="fill:#303030; stroke:none;" d="M9 94L10 95L9 94z"/>
<path style="fill:#858585; stroke:none;" d="M0 99L0 123L7 122L2 116L8 119L10 116L9 112L8 114L7 114L5 111L6 99L7 99L10 102L15 98L18 102L17 94L0 99M24 94L25 95L24 94z"/>
<path style="fill:#303030; stroke:none;" d="M28 94L30 101L35 104L28 94z"/>
<path style="fill:#858585; stroke:none;" d="M55 94L56 95L55 94z"/>
<path style="fill:#b4b4b4; stroke:none;" d="M112 94L113 98L114 98L112 94z"/>
<path style="fill:#303030; stroke:none;" d="M7 95L8 96L7 95z"/>
<path style="fill:#4f4f4f; stroke:none;" d="M8 95L9 96L8 95M15 95L14 97L16 97L15 95z"/>
<path style="fill:#303030; stroke:none;" d="M38 95L39 96L38 95z"/>
<path style="fill:#858585; stroke:none;" d="M128 95C127.878 100.95 129.018 109.374 125 114L126 117C121.143 120.648 121.996 126.184 127 129L123 126L127 117L131 117L131 116L128 115L131 100L128 95z"/>
<path style="fill:#4f4f4f; stroke:none;" d="M6 96L7 97L6 96z"/>
<path style="fill:#303030; stroke:none;" d="M21 96L23 103L26 102L21 96M48 96L51 100L48 96z"/>
<path style="fill:#858585; stroke:none;" d="M50.3333 96.6667L50.6667 97.3333L50.3333 96.6667z"/>
<path style="fill:#4f4f4f; stroke:none;" d="M4 97L5 98L4 97z"/>
<path style="fill:#858585; stroke:none;" d="M25 97L26 98L25 97z"/>
<path style="fill:#303030; stroke:none;" d="M1 98L2 99L1 98z"/>
<path style="fill:#4f4f4f; stroke:none;" d="M2 98L3 99L2 98z"/>
<path style="fill:#858585; stroke:none;" d="M52 99L54 102L52 99M63 99L64 100L63 99z"/>
<path style="fill:#303030; stroke:none;" d="M28.3333 100.667L28.6667 101.333L28.3333 100.667M37.6667 100.333L38.3333 100.667L37.6667 100.333M107.333 100.667L107.667 101.333L107.333 100.667z"/>
<path style="fill:#4f4f4f; stroke:none;" d="M112 100L112 102L114 102L114 100L112 100z"/>
<path style="fill:#b4b4b4; stroke:none;" d="M129 100L128 115L131 116L131 117L127 117L123 126C132.259 130.174 149.569 140.83 150 123L139 117L129 100z"/>
<path style="fill:#303030; stroke:none;" d="M51 101L52 102L51 101M101 101L102 102L101 101M131 101L132 102L131 101M39 102L40 103L39 102M52 102L53 105L52 102M103 102L105 105L103 102M22 104L23 110L24 110L25 105L26 105L26 112L19 111L21 116L36 115L29 111C30.548 105.17 27.5616 103.269 22 104z"/>
<path style="fill:#858585; stroke:none;" d="M96.3333 103.667L96.6667 104.333L96.3333 103.667M132.333 103.667L132.667 104.333L132.333 103.667M54 104L55 105L54 104z"/>
<path style="fill:#303030; stroke:none;" d="M133.333 104.667L133.667 105.333L133.333 104.667z"/>
<path style="fill:#858585; stroke:none;" d="M55.6667 105.333L56.3333 105.667L55.6667 105.333M34 106L35 107L34 106z"/>
<path style="fill:#303030; stroke:none;" d="M36 106L44 118L36 106M53 106L54 107L53 106M105.667 106.333L106.333 106.667L105.667 106.333z"/>
<path style="fill:#4f4f4f; stroke:none;" d="M133 106L134 107L133 106M2 107L2 110L4 110L4 107L2 107z"/>
<path style="fill:#858585; stroke:none;" d="M57 107L57 109L59 109L57 107z"/>
<path style="fill:#4f4f4f; stroke:none;" d="M72 107L81 116L80 114L85 116L84 112L104 115L104 114L83 111C82.0491 109.286 80.9194 108.647 81 111L72 107z"/>
<path style="fill:#b4b4b4; stroke:none;" d="M76 107L77 108L76 107M100 107L103 110L100 107z"/>
<path style="fill:#858585; stroke:none;" d="M133 107L135 109L133 107z"/>
<path style="fill:#303030; stroke:none;" d="M134 107L135 108L134 107M13 109L14 110L13 109M18.6667 109.333L19.3333 109.667L18.6667 109.333M56 109L57 110L56 109z"/>
<path style="fill:#858585; stroke:none;" d="M59 109L59 111L61 111L59 109z"/>
<path style="fill:#4f4f4f; stroke:none;" d="M135 109L136 110L135 109z"/>
<path style="fill:#303030; stroke:none;" d="M136 109L137 110L136 109z"/>
<path style="fill:#4f4f4f; stroke:none;" d="M137 109C138.135 114.448 141.916 115.832 147 117L150 123L149 113L146 114L147 111L140 111L140 110L144 110L137 109M0.333333 110.667L0.666667 111.333L0.333333 110.667z"/>
<path style="fill:#858585; stroke:none;" d="M77 110L78 111L77 110M131 110L132 111L131 110M135 110L137 112L137 110L135 110M140 110L140 111L146 112L140 110z"/>
<path style="fill:#303030; stroke:none;" d="M145 110L146 111L145 110z"/>
<path style="fill:#858585; stroke:none;" d="M43.3333 111.667L43.6667 112.333L43.3333 111.667z"/>
<path style="fill:#303030; stroke:none;" d="M57 111L60 113L57 111z"/>
<path style="fill:#858585; stroke:none;" d="M61 111L62 112L61 111z"/>
<path style="fill:#303030; stroke:none;" d="M81.6667 111.333L82.3333 111.667L81.6667 111.333M138 111L142 114L138 111M147 111L147 112L151 113L151 112L147 111z"/>
<path style="fill:#4f4f4f; stroke:none;" d="M28 112L28 114L30 114L28 112z"/>
<path style="fill:#303030; stroke:none;" d="M46 112L46 115L47 115L46 112z"/>
<path style="fill:#858585; stroke:none;" d="M62 112L63 113L62 112z"/>
<path style="fill:#303030; stroke:none;" d="M79 112L80 113L79 112z"/>
<path style="fill:#b4b4b4; stroke:none;" d="M101 112L101 113L104 113L101 112z"/>
<path style="fill:#858585; stroke:none;" d="M137.333 112.667L137.667 113.333L137.333 112.667M146 114L149 113C152.416 125.849 148.695 133.976 135 132C143.487 138.749 154.338 131.255 152.675 121C152.166 117.862 150.022 109.566 146 114z"/>
<path style="fill:#4f4f4f; stroke:none;" d="M32.3333 113.667L32.6667 114.333L32.3333 113.667z"/>
<path style="fill:#858585; stroke:none;" d="M37 113L37 116L38 116L37 113z"/>
<path style="fill:#303030; stroke:none;" d="M60 113L63 118L66 139L50 134L47 128L48 137L43 126L39 126L36 116L35 116L31 118L31 119L40 134L35 130C25.3944 134.403 23.6537 149.075 29 158L31 155C31.8866 157.523 33.0373 158.608 30 159L33 164L29 166L30 162L26 161C25.5631 164.781 23.5333 164.975 20 165L21 171L40 173L38 159L38 158L40 156L37 155L37 154L40 155L35 153L41 138L39 142L39 150L39 151C41.8462 153.319 45.4566 164.725 43 168L46 169L46 170L42 170L42 171C46.7384 172.557 55.9437 174.644 59 170L67 173L66 170L67 169L70 170L69 173L75 173L75 168L77 168C78.0624 174.118 83.9272 173 89 173C100.08 173.001 113.529 175.502 123 169L123 173L126 170L135 171L128 161L131 160L132 165L142 167L142 166L129 157C127.52 151.789 121.369 154.376 117 154L117 153L124 153L124 152L112 153L110 146L96 138L93 132L90 129C88.8806 126.393 87.6586 125.932 87 129C79.6198 127.817 72.8896 127.642 69 120L65 120L62 113L60 113z"/>
<path style="fill:#858585; stroke:none;" d="M63 113L69 120L63 113z"/>
<path style="fill:#4f4f4f; stroke:none;" d="M0 114L1 115L0 114M105 114L105 116L107 114L105 114z"/>
<path style="fill:#858585; stroke:none;" d="M138 114L139 115L138 114M44 115L45 116L44 115z"/>
<path style="fill:#4f4f4f; stroke:none;" d="M63 115L64 116L63 115M86 115L87 116L86 115z"/>
<path style="fill:#858585; stroke:none;" d="M139 117L144 117L139 117M147.333 115.667L147.667 116.333L147.333 115.667z"/>
<path style="fill:#4f4f4f; stroke:none;" d="M64 116L66 118L64 116M81 116L84 120L81 116z"/>
<path style="fill:#010101; stroke:none;" d="M86 119C90.0655 133.669 107.065 138.759 113 152L124 152L113 116L86 119z"/>
<path style="fill:#303030; stroke:none;" d="M145 116L147 119L145 116M151 116L152 117L151 116M19 117L20 118L19 117M23 117L23 118L26 120L27 120L23 117z"/>
<path style="fill:#858585; stroke:none;" d="M38.6667 117.333L39.3333 117.667L38.6667 117.333z"/>
<path style="fill:#303030; stroke:none;" d="M48 117L49 118L48 117z"/>
<path style="fill:#010101; stroke:none;" d="M64 117L65 118L64 117z"/>
<path style="fill:#4f4f4f; stroke:none;" d="M83 117L84 118L83 117M88 117L89 118L88 117M114 117L115 122L116 122L114 117z"/>
<path style="fill:#858585; stroke:none;" d="M144 117L146 120L144 117z"/>
<path style="fill:#4f4f4f; stroke:none;" d="M65 120L68 120L67 118L65 120z"/>
<path style="fill:#858585; stroke:none;" d="M81 118L81 120L83 120L81 118z"/>
<path style="fill:#4f4f4f; stroke:none;" d="M85 118L86 119L85 118M87 118L88 119L87 118M120 118L121 119L120 118z"/>
<path style="fill:#858585; stroke:none;" d="M149 118L150 119L149 118z"/>
<path style="fill:#303030; stroke:none;" d="M23 119L22 121L24 121L23 119M48 119L51 124L48 119z"/>
<path style="fill:#858585; stroke:none;" d="M59 119L59 121L61 121L61 119L59 119z"/>
<path style="fill:#303030; stroke:none;" d="M148 119L149 120L148 119z"/>
<path style="fill:#4f4f4f; stroke:none;" d="M152 119L153 120L152 119z"/>
<path style="fill:#303030; stroke:none;" d="M43 120L44 124L45 124L45 120L43 120z"/>
<path style="fill:#4f4f4f; stroke:none;" d="M69 120L71 123L69 120z"/>
<path style="fill:#858585; stroke:none;" d="M70.3333 120.667L70.6667 121.333L70.3333 120.667M84 120L87 123L84 120z"/>
<path style="fill:#4f4f4f; stroke:none;" d="M85 120L86 121L85 120z"/>
<path style="fill:#858585; stroke:none;" d="M146 120L147 121L146 120z"/>
<path style="fill:#303030; stroke:none;" d="M153 120L154 121L153 120M26 121L28 123L28 121L26 121M58 121L59 122L58 121M86 121L87 122L86 121z"/>
<path style="fill:#4f4f4f; stroke:none;" d="M153 121L148 133L151 133L151 132L155 132C154.451 128.709 152.562 125.14 156 126L153 121z"/>
<path style="fill:#858585; stroke:none;" d="M71 122L72 123L71 122M147.667 122.333L148.333 122.667L147.667 122.333z"/>
<path style="fill:#303030; stroke:none;" d="M154 122L155 123L154 122z"/>
<path style="fill:#858585; stroke:none;" d="M72 123L75 126L72 123z"/>
<path style="fill:#303030; stroke:none;" d="M87 123L88 124L87 123M7 124L8 125L7 124z"/>
<path style="fill:#4f4f4f; stroke:none;" d="M72 124L72 126L74 126L72 124M87.3333 124.667L87.6667 125.333L87.3333 124.667z"/>
<path style="fill:#858585; stroke:none;" d="M3 125L0 133L3 132C-3.50961 142.338 0 160.996 0 173L4 171L12 173L13 169L7 169C12.5989 165.357 18.7971 166.911 14 158C16.7112 158.577 17.3946 158.768 18 156L21 157L17 149L24 149L24 148L20 146L19 146L10 147L8 142C11.002 139.07 8.94648 133.691 8 130L6 132L3 125z"/>
<path style="fill:#303030; stroke:none;" d="M54.6667 125.333L55.3333 125.667L54.6667 125.333z"/>
<path style="fill:#858585; stroke:none;" d="M62 125L63 126L62 125M11 129L14 126L11 129z"/>
<path style="fill:#303030; stroke:none;" d="M51 126L53 128L53 126L51 126M58 126L58 129L59 129L58 126z"/>
<path style="fill:#4f4f4f; stroke:none;" d="M75 126L75 127L78 128L75 126z"/>
<path style="fill:#858585; stroke:none;" d="M77 126L78 127L77 126M81 128L81 129L86 127L81 128z"/>
<path style="fill:#4f4f4f; stroke:none;" d="M84 127L84 128L87 129L87 126L84 127z"/>
<path style="fill:#303030; stroke:none;" d="M28 127L28 130L29 130L28 127z"/>
<path style="fill:#4f4f4f; stroke:none;" d="M90.3333 127.667L90.6667 128.333L90.3333 127.667M123 127L124 128L123 127M155 127L159 132L155 127z"/>
<path style="fill:#858585; stroke:none;" d="M78.6667 128.333L79.3333 128.667L78.6667 128.333z"/>
<path style="fill:#4f4f4f; stroke:none;" d="M83 128L84 129L83 128M125 128L126 129L125 128M79.6667 129.333L80.3333 129.667L79.6667 129.333M89 129L90 130L89 129M119.333 129.667L119.667 130.333L119.333 129.667M122 129L123 130L122 129M126 129L126 130L128 132L132 132L132 131L126 129z"/>
<path style="fill:#858585; stroke:none;" d="M129.667 129.333L130.333 129.667L129.667 129.333z"/>
<path style="fill:#303030; stroke:none;" d="M157 129L158 130L157 129z"/>
<path style="fill:#858585; stroke:none;" d="M18 135L24 135L25 134L24 130L18 135M131 130L134 132L131 130z"/>
<path style="fill:#4f4f4f; stroke:none;" d="M80 131L81 132L80 131M83 131L84 132L83 131M93 131L94 132L93 131M125 131L126 132L125 131M0 135L3 132L0 135M130 133L130 134L139 135L130 133z"/>
<path style="fill:#303030; stroke:none;" d="M59 133L59 134L62 134L59 133z"/>
<path style="fill:#4f4f4f; stroke:none;" d="M83 133L84 134L83 133M119 133L120 134L119 133M147 133L145 134L145 135L147 133M120.333 134.667L120.667 135.333L120.333 134.667z"/>
<path style="fill:#858585; stroke:none;" d="M61 135L61 137L63 137L63 135L61 135z"/>
<path style="fill:#4f4f4f; stroke:none;" d="M148 140L148 141L153 148L144 144L145 150L149 147L147 150L147 151L149 155L145 150L144 150L140 152L140 151L143 151L135 145L134 145L133 148L132 145L131 145C129.886 149.215 128.586 151.396 124 151L129 157L143 166L143 163L148 164L148 165L144 165L144 166C147.468 166.352 153.376 169.994 154 165L159 167C159 162.514 159.947 157.846 156 155L159 154L157 139L159 135L148 140M7.33333 136.667L7.66667 137.333L7.33333 136.667z"/>
<path style="fill:#858585; stroke:none;" d="M18 136L19 137L18 136z"/>
<path style="fill:#4f4f4f; stroke:none;" d="M96 136L99 138L96 136M1 137L1 139L3 139L3 137L1 137z"/>
<path style="fill:#858585; stroke:none;" d="M99 137L100 138L99 137z"/>
<path style="fill:#4f4f4f; stroke:none;" d="M100 137L101 138L100 137M121 137L121 143L122 143L121 137M35 153L40 155L37 154L37 155L40 156L38 158L38 159L40 173L45 173L42 171L42 170L46 170L46 169L43 168C45.8057 164.047 42.421 153.973 39 151L39 150L39 142L41 138C35.9784 140.769 36.6089 147.844 35 153M101 138L102 139L101 138z"/>
<path style="fill:#303030; stroke:none;" d="M158 138L157 140L159 140L158 138z"/>
<path style="fill:#4f4f4f; stroke:none;" d="M48 139C48.5058 141.974 48.9606 142.856 52 143L48 139M5 140L7 143L5 140M103 140L104 141L103 140z"/>
<path style="fill:#303030; stroke:none;" d="M16 141L18 143L16 141z"/>
<path style="fill:#4f4f4f; stroke:none;" d="M53 141L54 142L53 141M66 141L65 145L67 144L67 145L62 147L63 151L72 148L72 149L68 154L71 155C67.7445 161.567 72.9268 164.066 78 167L72 141L66 141M105 141L106 146L107 146L105 141z"/>
<path style="fill:#858585; stroke:none;" d="M121 141L122 142L121 141z"/>
<path style="fill:#4f4f4f; stroke:none;" d="M1 142L1 146L2 146L1 142M63 142L62 144L63 142z"/>
<path style="fill:#858585; stroke:none;" d="M57 146L57 147L66 142L57 146M122 142L122 147L123 147L122 142z"/>
<path style="fill:#4f4f4f; stroke:none;" d="M128 142L126 148L126 151C129.307 148.856 129.475 145.525 128 142z"/>
<path style="fill:#010101; stroke:none;" d="M136 142L137 143L136 142z"/>
<path style="fill:#303030; stroke:none;" d="M156 142L157 143L156 142z"/>
<path style="fill:#858585; stroke:none;" d="M19 143L20 144L19 143z"/>
<path style="fill:#010101; stroke:none;" d="M56 143L57 144L56 143z"/>
<path style="fill:#303030; stroke:none;" d="M23 144L24 145L23 144z"/>
<path style="fill:#4f4f4f; stroke:none;" d="M53 147L51 150L43 150L42 150L42 156L57 169L60 162L56 166L55 166L57 159L53 158L53 157L56 157L56 156L54 154L58 151L50 153L50 152L60 148L60 147L57 147L57 146L60 145L53 147z"/>
<path style="fill:#858585; stroke:none;" d="M106 144L107 145L106 144z"/>
<path style="fill:#4f4f4f; stroke:none;" d="M126 144L127 145L126 144M62 145L63 146L62 145z"/>
<path style="fill:#858585; stroke:none;" d="M71 145L72 146L71 145z"/>
<path style="fill:#4f4f4f; stroke:none;" d="M60 146L61 147L60 146M104 146L105 147L104 146M107.667 146.333L108.333 146.667L107.667 146.333M109 147L110 148L109 147M122.667 147.333L123.333 147.667L122.667 147.333z"/>
<path style="fill:#858585; stroke:none;" d="M51 150L54 148L51 150z"/>
<path style="fill:#4f4f4f; stroke:none;" d="M60 149L61 150L60 149M111 149L114 153L111 149M13 150L13 151L16 151L13 150z"/>
<path style="fill:#858585; stroke:none;" d="M25.3333 150.667L25.6667 151.333L25.3333 150.667M43 155L46 156L50 150L43 155z"/>
<path style="fill:#b4b4b4; stroke:none;" d="M0.333333 151.667L0.666667 152.333L0.333333 151.667z"/>
<path style="fill:#858585; stroke:none;" d="M37 151L38 152L37 151M130 152L130 153L140 154L130 152M112 152L113 153L112 152z"/>
<path style="fill:#303030; stroke:none;" d="M48.3333 153.667L48.6667 154.333L48.3333 153.667z"/>
<path style="fill:#4f4f4f; stroke:none;" d="M117 153L117 154L122 154L117 153z"/>
<path style="fill:#858585; stroke:none;" d="M122.667 153.333L123.333 153.667L122.667 153.333M156 154L159 156L156 154z"/>
<path style="fill:#4f4f4f; stroke:none;" d="M13.6667 155.333L14.3333 155.667L13.6667 155.333z"/>
<path style="fill:#303030; stroke:none;" d="M47 155L48 156L47 155z"/>
<path style="fill:#858585; stroke:none;" d="M137 156L136 159L139 159L137 156z"/>
<path style="fill:#303030; stroke:none;" d="M152 156L153 157L152 156z"/>
<path style="fill:#4f4f4f; stroke:none;" d="M1 157L3 159L1 157M8 157L13 161L8 157M42 157L43 158L42 157z"/>
<path style="fill:#303030; stroke:none;" d="M150 157L151 158L150 157z"/>
<path style="fill:#4f4f4f; stroke:none;" d="M63 159L63 163L64 163L63 159z"/>
<path style="fill:#303030; stroke:none;" d="M73 159L74 161L75 161L76 159L73 159M154.667 159.333L155.333 159.667L154.667 159.333z"/>
<path style="fill:#4f4f4f; stroke:none;" d="M4 160L3 162L4 160z"/>
<path style="fill:#858585; stroke:none;" d="M50 160L51 161L50 160z"/>
<path style="fill:#4f4f4f; stroke:none;" d="M128 161L135 171L126 170C126.996 174.648 134.917 172.811 139 173L137 168L144 172L144 173L150 173C146.443 167.741 139.196 165.51 133 166L131 160L128 161z"/>
<path style="fill:#858585; stroke:none;" d="M140 161L140 162L144 160L140 161z"/>
<path style="fill:#303030; stroke:none;" d="M151.333 161.667L151.667 162.333L151.333 161.667z"/>
<path style="fill:#4f4f4f; stroke:none;" d="M9 162L10 163L9 162M13 162L15 164L15 162L13 162z"/>
<path style="fill:#303030; stroke:none;" d="M73 162L73 163L76 163L73 162z"/>
<path style="fill:#858585; stroke:none;" d="M154 164L157 162L154 164z"/>
<path style="fill:#4f4f4f; stroke:none;" d="M39 163L40 164L39 163z"/>
<path style="fill:#858585; stroke:none;" d="M143 163L142 168L154 173L154 169L155 172C160.282 170.257 158.089 166.714 154 165C153.372 169.805 147.432 166.073 144 166L144 165L148 165L143 163z"/>
<path style="fill:#4f4f4f; stroke:none;" d="M61 166L64 164L61 166M3 165L4 166L3 165M8.66667 165.333L9.33333 165.667L8.66667 165.333z"/>
<path style="fill:#858585; stroke:none;" d="M133.667 165.333L134.333 165.667L133.667 165.333z"/>
<path style="fill:#303030; stroke:none;" d="M151 165L152 166L151 165z"/>
<path style="fill:#4f4f4f; stroke:none;" d="M33 166L34 167L33 166M68 166L69 167L68 166z"/>
<path style="fill:#858585; stroke:none;" d="M151.667 166.333L152.333 166.667L151.667 166.333M19.3333 167.667L19.6667 168.333L19.3333 167.667M16 168L16 173L17 173L16 168z"/>
<path style="fill:#4f4f4f; stroke:none;" d="M75 168L75 173L79 173L79 172L77 168L75 168z"/>
<path style="fill:#858585; stroke:none;" d="M137 168C138.677 172.559 141.89 173.79 146 171L137 168z"/>
<path style="fill:#4f4f4f; stroke:none;" d="M67 169L66 170L67 173L69 173L70 170L67 169M79 169L79 172L81 169L79 169M122 169L118 173L123 173L122 169z"/>
<path style="fill:#b4b4b4; stroke:none;" d="M154 169C154.175 172.4 156.577 173.766 159 171L154 169z"/>
<path style="fill:#4f4f4f; stroke:none;" d="M58 170L60 173L58 170M4 171L7 173L4 171M49 172L49 173L54 173L49 172z"/>
<path style="fill:#303030; stroke:none;" d="M136 171L137 172L136 171z"/>
<path style="fill:#4f4f4f; stroke:none;" d="M8 172L9 173L8 172M71 172L72 173L71 172z"/>
<path style="fill:#858585; stroke:none;" d="M132 172L132 173L135 173L132 172z"/>
</svg>
